<?xml version="1.0" standalone="no"?>
<!DOCTYPE svg PUBLIC "-//W3C//DTD SVG 20010904//EN"
 "http://www.w3.org/TR/2001/REC-SVG-20010904/DTD/svg10.dtd">
<svg version="1.0" xmlns="http://www.w3.org/2000/svg"
 width="96.000000pt" height="96.000000pt" viewBox="0 0 96.000000 96.000000"
 preserveAspectRatio="xMidYMid meet">
<metadata>
Created by potrace 1.10, written by Peter Selinger 2001-2011
</metadata>
<g transform="translate(0.000000,96.000000) scale(0.100000,-0.100000)"
fill="#000000" stroke="none">
<path d="M62 913 c-15 -16 -18 -20 -6 -10 12 10 34 22 50 27 25 7 26 8 7 9
-13 1 -35 -11 -51 -26z"/>
<path d="M826 929 c59 -17 104 -84 104 -156 0 -13 5 -23 10 -23 15 0 12 65 -6
110 -20 49 -61 80 -106 79 l-33 -1 31 -9z"/>
<path d="M625 822 c-56 -2 -76 -8 -103 -29 -100 -76 -92 -236 16 -304 125 -79
282 8 282 157 0 54 -14 91 -48 127 -40 43 -69 52 -147 49z m0 -31 c-3 -5 -6
-32 -6 -60 -2 -49 -2 -50 -23 -36 -27 20 -39 19 -67 -3 -19 -16 -22 -27 -20
-71 2 -56 -17 -68 -30 -20 -17 64 22 160 76 187 25 13 78 15 70 3z m72 -13 c6
-7 11 -30 11 -51 1 -21 4 -42 7 -48 11 -17 25 1 25 32 0 16 5 29 10 29 12 0
13 -50 1 -68 -4 -8 -19 -12 -32 -10 -21 3 -24 9 -27 56 -3 44 -6 53 -20 50
-14 -3 -17 -17 -18 -96 -2 -106 -6 -122 -32 -122 -29 0 -42 22 -40 69 1 44 -4
57 -21 46 -6 -3 -11 -35 -11 -71 0 -38 -4 -64 -10 -64 -7 0 -10 27 -8 73 l3
72 30 0 c29 0 30 -1 33 -53 3 -44 6 -53 20 -50 14 3 17 18 20 98 3 111 5 120
30 120 11 0 24 -6 29 -12z m48 -7 c3 -5 1 -12 -4 -15 -5 -3 -11 1 -15 9 -6 16
9 21 19 6z m50 -130 c-9 -111 -71 -161 -190 -153 -47 3 -61 16 -44 40 13 17
17 18 33 7 39 -29 93 25 84 84 -4 29 4 41 16 23 10 -16 65 0 81 24 8 13 18 24
20 24 3 0 3 -22 0 -49z"/>
<path d="M86 739 c-23 -18 -41 -26 -69 -28 -5 -1 -5 -5 -2 -11 3 -5 21 -10 39
-10 49 0 56 -14 56 -107 0 -63 5 -93 19 -122 23 -44 74 -91 119 -110 18 -7 32
-20 32 -27 0 -27 -44 -103 -54 -95 -6 4 -18 1 -27 -9 -14 -15 -10 -16 58 -16
68 0 90 6 40 12 -12 1 -25 3 -29 3 -5 1 -8 8 -8 16 0 12 6 12 48 -1 70 -23
106 -29 98 -15 -4 6 -18 11 -32 11 -19 0 -24 4 -20 18 3 9 10 36 16 59 9 38
14 42 49 48 48 8 132 -13 243 -61 112 -48 167 -65 197 -57 16 4 22 2 17 -6 -5
-8 0 -8 17 -2 14 6 29 6 38 0 11 -6 8 -9 -11 -10 -17 -1 -19 -3 -7 -6 14 -4
16 -12 11 -46 -15 -101 -51 -132 -177 -153 l-82 -13 85 5 c50 3 99 13 120 23
42 20 76 84 83 153 5 49 2 52 -48 64 -23 5 -185 67 -255 96 -61 26 -93 49
-170 122 -52 49 -125 111 -161 138 -38 28 -72 62 -79 79 -17 40 -66 79 -99 79
-16 0 -40 -9 -55 -21z m44 -24 c-8 -9 -9 -15 -2 -15 6 0 14 5 17 10 13 21 35
9 65 -36 35 -49 34 -55 -6 -60 -14 -1 -34 -10 -45 -20 -18 -17 -19 -16 -19 22
-1 21 -7 50 -14 63 -14 26 -11 51 6 51 6 0 5 -6 -2 -15z m103 -199 c25 -53 43
-78 63 -88 16 -7 30 -22 32 -32 9 -43 -64 -49 -117 -9 -69 52 -87 89 -67 136
11 28 41 67 51 67 1 0 19 -33 38 -74z m115 22 c94 -46 112 -63 55 -52 -49 9
-142 56 -168 84 l-20 23 25 -8 c14 -4 62 -25 108 -47z m70 -88 c23 0 43 -10
68 -33 l37 -33 -59 0 c-33 1 -69 -3 -81 -7 -19 -7 -22 -4 -25 20 -2 19 -14 35
-40 52 -59 38 -48 55 15 26 28 -14 67 -25 85 -25z m-73 -151 l0 -44 -37 0
c-21 0 -38 1 -38 3 0 2 9 17 21 33 11 16 18 33 15 38 -7 10 13 21 29 17 6 -2
10 -23 10 -47z"/>
<path d="M168 223 c6 -2 18 -2 25 0 6 3 1 5 -13 5 -14 0 -19 -2 -12 -5z"/>
<path d="M1 174 c0 -11 3 -14 6 -6 3 7 2 16 -1 19 -3 4 -6 -2 -5 -13z"/>
<path d="M45 61 c28 -33 69 -48 150 -55 l70 -5 -75 13 c-88 15 -107 22 -140
50 l-25 21 20 -24z"/>
</g>
</svg>
